<mxfile host="Electron" modified="2023-12-29T09:35:56.190Z" agent="Mozilla/5.0 (Windows NT 10.0; Win64; x64) AppleWebKit/537.36 (KHTML, like Gecko) draw.io/22.0.2 Chrome/114.0.5735.289 Electron/25.8.4 Safari/537.36" etag="rswmyb3yL46fTOY36e7G" version="22.0.2" type="device">
  <diagram id="y1GI_bcndjoka8Km0WxO" name="Pagina-1">
    <mxGraphModel dx="1520" dy="1724" grid="0" gridSize="10" guides="1" tooltips="1" connect="1" arrows="1" fold="1" page="0" pageScale="1" pageWidth="827" pageHeight="1169" math="0" shadow="0">
      <root>
        <mxCell id="0" />
        <mxCell id="1" parent="0" />
        <mxCell id="mCapJPWahhMgRFZEFvtk-17" value="" style="edgeStyle=orthogonalEdgeStyle;shape=connector;rounded=0;orthogonalLoop=1;jettySize=auto;html=1;labelBackgroundColor=default;strokeColor=default;align=center;verticalAlign=middle;fontFamily=Helvetica;fontSize=11;fontColor=default;endArrow=none;endFill=0;" parent="1" source="BabXA0i_4MHQfyEZQ3z1-1" target="mCapJPWahhMgRFZEFvtk-16" edge="1">
          <mxGeometry relative="1" as="geometry">
            <Array as="points">
              <mxPoint x="170" y="74" />
            </Array>
          </mxGeometry>
        </mxCell>
        <mxCell id="mCapJPWahhMgRFZEFvtk-21" value="" style="edgeStyle=orthogonalEdgeStyle;shape=connector;rounded=0;orthogonalLoop=1;jettySize=auto;html=1;labelBackgroundColor=default;strokeColor=default;align=center;verticalAlign=middle;fontFamily=Helvetica;fontSize=11;fontColor=default;endArrow=none;endFill=0;entryX=0;entryY=0.5;entryDx=0;entryDy=0;" parent="1" source="BabXA0i_4MHQfyEZQ3z1-1" target="mCapJPWahhMgRFZEFvtk-20" edge="1">
          <mxGeometry relative="1" as="geometry">
            <mxPoint x="308" y="644" as="targetPoint" />
            <Array as="points">
              <mxPoint x="139" y="646" />
            </Array>
          </mxGeometry>
        </mxCell>
        <mxCell id="BabXA0i_4MHQfyEZQ3z1-1" value="GIOCATORE" style="whiteSpace=wrap;html=1;align=center;fontSize=16;" parent="1" vertex="1">
          <mxGeometry x="73.5" y="-90" width="131" height="44" as="geometry" />
        </mxCell>
        <mxCell id="BabXA0i_4MHQfyEZQ3z1-14" value="SSN" style="ellipse;whiteSpace=wrap;html=1;align=center;fontStyle=4;fontSize=16;" parent="1" vertex="1">
          <mxGeometry x="89" y="-677" width="100" height="40" as="geometry" />
        </mxCell>
        <mxCell id="BabXA0i_4MHQfyEZQ3z1-28" value="" style="edgeStyle=none;curved=1;rounded=0;orthogonalLoop=1;jettySize=auto;html=1;fontSize=12;startSize=8;endSize=8;endArrow=none;endFill=0;" parent="1" source="BabXA0i_4MHQfyEZQ3z1-15" target="BabXA0i_4MHQfyEZQ3z1-16" edge="1">
          <mxGeometry relative="1" as="geometry" />
        </mxCell>
        <mxCell id="BabXA0i_4MHQfyEZQ3z1-15" value="Nome" style="ellipse;whiteSpace=wrap;html=1;align=center;fontSize=16;" parent="1" vertex="1">
          <mxGeometry x="-76" y="-614" width="100" height="40" as="geometry" />
        </mxCell>
        <mxCell id="BabXA0i_4MHQfyEZQ3z1-16" value="Cognome" style="ellipse;whiteSpace=wrap;html=1;align=center;fontSize=16;" parent="1" vertex="1">
          <mxGeometry x="241.5" y="-614" width="100" height="40" as="geometry" />
        </mxCell>
        <mxCell id="BabXA0i_4MHQfyEZQ3z1-30" value="" style="edgeStyle=none;shape=connector;curved=1;rounded=0;orthogonalLoop=1;jettySize=auto;html=1;labelBackgroundColor=default;strokeColor=default;align=center;verticalAlign=middle;fontFamily=Helvetica;fontSize=12;fontColor=default;endArrow=none;endFill=0;startSize=8;endSize=8;" parent="1" source="BabXA0i_4MHQfyEZQ3z1-17" target="BabXA0i_4MHQfyEZQ3z1-20" edge="1">
          <mxGeometry relative="1" as="geometry" />
        </mxCell>
        <mxCell id="BabXA0i_4MHQfyEZQ3z1-17" value="Nazionalità" style="ellipse;whiteSpace=wrap;html=1;align=center;fontSize=16;" parent="1" vertex="1">
          <mxGeometry x="-76" y="-441" width="100" height="40" as="geometry" />
        </mxCell>
        <mxCell id="BabXA0i_4MHQfyEZQ3z1-29" value="" style="edgeStyle=none;shape=connector;curved=1;rounded=0;orthogonalLoop=1;jettySize=auto;html=1;labelBackgroundColor=default;strokeColor=default;align=center;verticalAlign=middle;fontFamily=Helvetica;fontSize=12;fontColor=default;endArrow=none;endFill=0;startSize=8;endSize=8;" parent="1" source="BabXA0i_4MHQfyEZQ3z1-18" target="BabXA0i_4MHQfyEZQ3z1-19" edge="1">
          <mxGeometry relative="1" as="geometry" />
        </mxCell>
        <mxCell id="BabXA0i_4MHQfyEZQ3z1-18" value="Data di Nascita" style="ellipse;whiteSpace=wrap;html=1;align=center;fontSize=16;" parent="1" vertex="1">
          <mxGeometry x="-78" y="-537" width="104" height="44" as="geometry" />
        </mxCell>
        <mxCell id="BabXA0i_4MHQfyEZQ3z1-19" value="Piede" style="ellipse;whiteSpace=wrap;html=1;align=center;fontSize=16;" parent="1" vertex="1">
          <mxGeometry x="246" y="-535" width="100" height="40" as="geometry" />
        </mxCell>
        <mxCell id="BabXA0i_4MHQfyEZQ3z1-20" value="Altezza" style="ellipse;whiteSpace=wrap;html=1;align=center;fontSize=16;" parent="1" vertex="1">
          <mxGeometry x="249" y="-441" width="100" height="40" as="geometry" />
        </mxCell>
        <mxCell id="BabXA0i_4MHQfyEZQ3z1-21" value="Peso" style="ellipse;whiteSpace=wrap;html=1;align=center;fontSize=16;" parent="1" vertex="1">
          <mxGeometry x="246" y="-354" width="100" height="40" as="geometry" />
        </mxCell>
        <mxCell id="BabXA0i_4MHQfyEZQ3z1-22" value="Abilità" style="ellipse;whiteSpace=wrap;html=1;align=center;fontSize=16;" parent="1" vertex="1">
          <mxGeometry x="-76" y="-177" width="100" height="40" as="geometry" />
        </mxCell>
        <mxCell id="BabXA0i_4MHQfyEZQ3z1-31" value="" style="edgeStyle=none;shape=connector;curved=1;rounded=0;orthogonalLoop=1;jettySize=auto;html=1;labelBackgroundColor=default;strokeColor=default;align=center;verticalAlign=middle;fontFamily=Helvetica;fontSize=12;fontColor=default;endArrow=none;endFill=0;startSize=8;endSize=8;" parent="1" source="BabXA0i_4MHQfyEZQ3z1-23" target="BabXA0i_4MHQfyEZQ3z1-21" edge="1">
          <mxGeometry relative="1" as="geometry" />
        </mxCell>
        <mxCell id="BabXA0i_4MHQfyEZQ3z1-23" value="Ruoli" style="ellipse;whiteSpace=wrap;html=1;align=center;fontSize=16;" parent="1" vertex="1">
          <mxGeometry x="-76" y="-354" width="100" height="40" as="geometry" />
        </mxCell>
        <mxCell id="BabXA0i_4MHQfyEZQ3z1-32" value="" style="edgeStyle=none;shape=connector;curved=1;rounded=0;orthogonalLoop=1;jettySize=auto;html=1;labelBackgroundColor=default;strokeColor=default;align=center;verticalAlign=middle;fontFamily=Helvetica;fontSize=12;fontColor=default;endArrow=none;endFill=0;startSize=8;endSize=8;" parent="1" source="BabXA0i_4MHQfyEZQ3z1-24" target="BabXA0i_4MHQfyEZQ3z1-25" edge="1">
          <mxGeometry relative="1" as="geometry" />
        </mxCell>
        <mxCell id="BabXA0i_4MHQfyEZQ3z1-24" value="Ritirato" style="ellipse;whiteSpace=wrap;html=1;align=center;fontSize=16;" parent="1" vertex="1">
          <mxGeometry x="-76" y="-273" width="100" height="40" as="geometry" />
        </mxCell>
        <mxCell id="BabXA0i_4MHQfyEZQ3z1-25" value="TipoGiocatore" style="ellipse;whiteSpace=wrap;html=1;align=center;fontSize=16;" parent="1" vertex="1">
          <mxGeometry x="241.5" y="-273" width="115" height="42" as="geometry" />
        </mxCell>
        <mxCell id="BabXA0i_4MHQfyEZQ3z1-27" value="" style="endArrow=none;html=1;rounded=0;fontSize=12;startSize=8;endSize=8;curved=1;exitX=0.5;exitY=1;exitDx=0;exitDy=0;entryX=0.5;entryY=0;entryDx=0;entryDy=0;" parent="1" source="BabXA0i_4MHQfyEZQ3z1-14" target="BabXA0i_4MHQfyEZQ3z1-1" edge="1">
          <mxGeometry relative="1" as="geometry">
            <mxPoint x="71" y="-206" as="sourcePoint" />
            <mxPoint x="108" y="-95" as="targetPoint" />
            <Array as="points">
              <mxPoint x="139" y="-418" />
              <mxPoint x="139" y="-320" />
            </Array>
          </mxGeometry>
        </mxCell>
        <mxCell id="BabXA0i_4MHQfyEZQ3z1-33" value="" style="edgeStyle=none;shape=connector;curved=1;rounded=0;orthogonalLoop=1;jettySize=auto;html=1;labelBackgroundColor=default;strokeColor=default;align=center;verticalAlign=middle;fontFamily=Helvetica;fontSize=12;fontColor=default;endArrow=none;endFill=0;startSize=8;endSize=8;exitX=1;exitY=0.5;exitDx=0;exitDy=0;" parent="1" edge="1">
          <mxGeometry relative="1" as="geometry">
            <mxPoint x="22.999999999999886" y="-157" as="sourcePoint" />
            <mxPoint x="139" y="-157" as="targetPoint" />
          </mxGeometry>
        </mxCell>
        <mxCell id="BabXA0i_4MHQfyEZQ3z1-100" value="" style="edgeStyle=none;shape=connector;curved=1;rounded=0;orthogonalLoop=1;jettySize=auto;html=1;labelBackgroundColor=default;strokeColor=default;align=center;verticalAlign=middle;fontFamily=Helvetica;fontSize=12;fontColor=default;endArrow=none;endFill=0;startSize=8;endSize=8;" parent="1" source="BabXA0i_4MHQfyEZQ3z1-34" target="BabXA0i_4MHQfyEZQ3z1-99" edge="1">
          <mxGeometry relative="1" as="geometry" />
        </mxCell>
        <mxCell id="BabXA0i_4MHQfyEZQ3z1-113" value="" style="edgeStyle=elbowEdgeStyle;shape=connector;rounded=0;orthogonalLoop=1;jettySize=auto;html=1;labelBackgroundColor=default;strokeColor=default;align=center;verticalAlign=middle;fontFamily=Helvetica;fontSize=12;fontColor=default;endArrow=none;endFill=0;startSize=8;endSize=8;" parent="1" source="BabXA0i_4MHQfyEZQ3z1-34" target="BabXA0i_4MHQfyEZQ3z1-112" edge="1">
          <mxGeometry relative="1" as="geometry">
            <Array as="points">
              <mxPoint x="110" y="496" />
            </Array>
          </mxGeometry>
        </mxCell>
        <mxCell id="BabXA0i_4MHQfyEZQ3z1-34" value="MILITANZA" style="whiteSpace=wrap;html=1;align=center;fontSize=16;flipV=0;flipH=0;" parent="1" vertex="1">
          <mxGeometry x="-177.5" y="175" width="131" height="44" as="geometry" />
        </mxCell>
        <mxCell id="BabXA0i_4MHQfyEZQ3z1-35" value="ID_Militanza" style="ellipse;whiteSpace=wrap;html=1;align=center;fontStyle=4;fontSize=16;flipV=0;flipH=0;" parent="1" vertex="1">
          <mxGeometry x="-162" y="767" width="100" height="40" as="geometry" />
        </mxCell>
        <mxCell id="BabXA0i_4MHQfyEZQ3z1-36" value="" style="edgeStyle=none;curved=1;rounded=0;orthogonalLoop=1;jettySize=auto;html=1;fontSize=12;startSize=8;endSize=8;endArrow=none;endFill=0;" parent="1" source="BabXA0i_4MHQfyEZQ3z1-37" target="BabXA0i_4MHQfyEZQ3z1-38" edge="1">
          <mxGeometry relative="1" as="geometry" />
        </mxCell>
        <mxCell id="BabXA0i_4MHQfyEZQ3z1-37" value="Data_Inizio" style="ellipse;whiteSpace=wrap;html=1;align=center;fontSize=16;flipV=0;flipH=0;" parent="1" vertex="1">
          <mxGeometry x="-327" y="267" width="100" height="40" as="geometry" />
        </mxCell>
        <mxCell id="BabXA0i_4MHQfyEZQ3z1-38" value="Data_Fine" style="ellipse;whiteSpace=wrap;html=1;align=center;fontSize=16;flipV=0;flipH=0;" parent="1" vertex="1">
          <mxGeometry x="-9.5" y="267" width="100" height="40" as="geometry" />
        </mxCell>
        <mxCell id="BabXA0i_4MHQfyEZQ3z1-39" value="" style="edgeStyle=none;shape=connector;curved=1;rounded=0;orthogonalLoop=1;jettySize=auto;html=1;labelBackgroundColor=default;strokeColor=default;align=center;verticalAlign=middle;fontFamily=Helvetica;fontSize=12;fontColor=default;endArrow=none;endFill=0;startSize=8;endSize=8;" parent="1" source="BabXA0i_4MHQfyEZQ3z1-40" target="BabXA0i_4MHQfyEZQ3z1-44" edge="1">
          <mxGeometry relative="1" as="geometry" />
        </mxCell>
        <mxCell id="BabXA0i_4MHQfyEZQ3z1-40" value="Assist" style="ellipse;whiteSpace=wrap;html=1;align=center;fontSize=16;flipV=0;flipH=0;" parent="1" vertex="1">
          <mxGeometry x="-327" y="440" width="100" height="40" as="geometry" />
        </mxCell>
        <mxCell id="BabXA0i_4MHQfyEZQ3z1-41" value="" style="edgeStyle=none;shape=connector;curved=1;rounded=0;orthogonalLoop=1;jettySize=auto;html=1;labelBackgroundColor=default;strokeColor=default;align=center;verticalAlign=middle;fontFamily=Helvetica;fontSize=12;fontColor=default;endArrow=none;endFill=0;startSize=8;endSize=8;" parent="1" source="BabXA0i_4MHQfyEZQ3z1-42" target="BabXA0i_4MHQfyEZQ3z1-43" edge="1">
          <mxGeometry relative="1" as="geometry" />
        </mxCell>
        <mxCell id="BabXA0i_4MHQfyEZQ3z1-42" value="Partite Giocate" style="ellipse;whiteSpace=wrap;html=1;align=center;fontSize=16;flipV=0;flipH=0;" parent="1" vertex="1">
          <mxGeometry x="-329" y="344" width="104" height="44" as="geometry" />
        </mxCell>
        <mxCell id="BabXA0i_4MHQfyEZQ3z1-43" value="Goal Segnati" style="ellipse;whiteSpace=wrap;html=1;align=center;fontSize=16;flipV=0;flipH=0;" parent="1" vertex="1">
          <mxGeometry x="-5" y="346" width="100" height="40" as="geometry" />
        </mxCell>
        <mxCell id="BabXA0i_4MHQfyEZQ3z1-44" value="Goal Subiti" style="ellipse;whiteSpace=wrap;html=1;align=center;fontSize=16;flipV=0;flipH=0;" parent="1" vertex="1">
          <mxGeometry x="-2" y="440" width="100" height="40" as="geometry" />
        </mxCell>
        <mxCell id="BabXA0i_4MHQfyEZQ3z1-45" value="Cartellini Rossi" style="ellipse;whiteSpace=wrap;html=1;align=center;fontSize=16;flipV=0;flipH=0;" parent="1" vertex="1">
          <mxGeometry x="-5" y="527" width="100" height="40" as="geometry" />
        </mxCell>
        <mxCell id="BabXA0i_4MHQfyEZQ3z1-47" value="" style="edgeStyle=none;shape=connector;curved=1;rounded=0;orthogonalLoop=1;jettySize=auto;html=1;labelBackgroundColor=default;strokeColor=default;align=center;verticalAlign=middle;fontFamily=Helvetica;fontSize=12;fontColor=default;endArrow=none;endFill=0;startSize=8;endSize=8;" parent="1" source="BabXA0i_4MHQfyEZQ3z1-48" target="BabXA0i_4MHQfyEZQ3z1-45" edge="1">
          <mxGeometry relative="1" as="geometry" />
        </mxCell>
        <mxCell id="BabXA0i_4MHQfyEZQ3z1-48" value="Cartellini Gialli" style="ellipse;whiteSpace=wrap;html=1;align=center;fontSize=16;flipV=0;flipH=0;" parent="1" vertex="1">
          <mxGeometry x="-327" y="527" width="100" height="40" as="geometry" />
        </mxCell>
        <mxCell id="BabXA0i_4MHQfyEZQ3z1-49" value="" style="edgeStyle=none;shape=connector;curved=1;rounded=0;orthogonalLoop=1;jettySize=auto;html=1;labelBackgroundColor=default;strokeColor=default;align=center;verticalAlign=middle;fontFamily=Helvetica;fontSize=12;fontColor=default;endArrow=none;endFill=0;startSize=8;endSize=8;exitX=1;exitY=0.5;exitDx=0;exitDy=0;" parent="1" source="BabXA0i_4MHQfyEZQ3z1-50" edge="1">
          <mxGeometry relative="1" as="geometry">
            <mxPoint x="-228.0053115658426" y="622.2915142182746" as="sourcePoint" />
            <mxPoint x="-112" y="628" as="targetPoint" />
          </mxGeometry>
        </mxCell>
        <mxCell id="BabXA0i_4MHQfyEZQ3z1-50" value="TipoMilitanza" style="ellipse;whiteSpace=wrap;html=1;align=center;fontSize=16;flipV=0;flipH=0;" parent="1" vertex="1">
          <mxGeometry x="-327" y="608" width="100" height="40" as="geometry" />
        </mxCell>
        <mxCell id="BabXA0i_4MHQfyEZQ3z1-54" value="" style="endArrow=none;html=1;rounded=0;labelBackgroundColor=default;strokeColor=default;align=center;verticalAlign=middle;fontFamily=Helvetica;fontSize=12;fontColor=default;startSize=8;endSize=8;shape=connector;curved=1;entryX=0.5;entryY=1;entryDx=0;entryDy=0;exitX=0.5;exitY=0;exitDx=0;exitDy=0;" parent="1" source="BabXA0i_4MHQfyEZQ3z1-35" target="BabXA0i_4MHQfyEZQ3z1-34" edge="1">
          <mxGeometry relative="1" as="geometry">
            <mxPoint x="-313" y="433" as="sourcePoint" />
            <mxPoint x="-153" y="433" as="targetPoint" />
          </mxGeometry>
        </mxCell>
        <mxCell id="BabXA0i_4MHQfyEZQ3z1-118" value="" style="edgeStyle=none;shape=connector;curved=1;rounded=0;orthogonalLoop=1;jettySize=auto;html=1;labelBackgroundColor=default;strokeColor=default;align=center;verticalAlign=middle;fontFamily=Helvetica;fontSize=12;fontColor=default;endArrow=none;endFill=0;startSize=8;endSize=8;" parent="1" source="BabXA0i_4MHQfyEZQ3z1-55" target="BabXA0i_4MHQfyEZQ3z1-117" edge="1">
          <mxGeometry relative="1" as="geometry" />
        </mxCell>
        <mxCell id="BabXA0i_4MHQfyEZQ3z1-55" value="SQUADRA" style="whiteSpace=wrap;html=1;align=center;fontSize=16;flipV=0;flipH=0;" parent="1" vertex="1">
          <mxGeometry x="806.25" y="-330" width="131" height="44" as="geometry" />
        </mxCell>
        <mxCell id="BabXA0i_4MHQfyEZQ3z1-56" value="NomeSquadra" style="ellipse;whiteSpace=wrap;html=1;align=center;fontStyle=4;fontSize=16;flipV=0;flipH=0;" parent="1" vertex="1">
          <mxGeometry x="1152" y="-335" width="131" height="54" as="geometry" />
        </mxCell>
        <mxCell id="BabXA0i_4MHQfyEZQ3z1-57" value="" style="edgeStyle=none;curved=1;rounded=0;orthogonalLoop=1;jettySize=auto;html=1;fontSize=12;startSize=8;endSize=8;endArrow=none;endFill=0;" parent="1" source="BabXA0i_4MHQfyEZQ3z1-58" target="BabXA0i_4MHQfyEZQ3z1-59" edge="1">
          <mxGeometry relative="1" as="geometry" />
        </mxCell>
        <mxCell id="BabXA0i_4MHQfyEZQ3z1-58" value="Nazionalità" style="ellipse;whiteSpace=wrap;html=1;align=center;fontSize=16;flipV=1;flipH=0;" parent="1" vertex="1">
          <mxGeometry x="1005.25" y="-251" width="109" height="44" as="geometry" />
        </mxCell>
        <mxCell id="BabXA0i_4MHQfyEZQ3z1-59" value="Data_Fondazione" style="ellipse;whiteSpace=wrap;html=1;align=center;fontSize=16;flipV=1;flipH=0;" parent="1" vertex="1">
          <mxGeometry x="983.75" y="-414" width="152" height="47.5" as="geometry" />
        </mxCell>
        <mxCell id="BabXA0i_4MHQfyEZQ3z1-71" value="" style="endArrow=none;html=1;rounded=0;labelBackgroundColor=default;strokeColor=default;align=center;verticalAlign=middle;fontFamily=Helvetica;fontSize=12;fontColor=default;startSize=8;endSize=8;shape=connector;curved=1;entryX=1;entryY=0.5;entryDx=0;entryDy=0;exitX=0;exitY=0.5;exitDx=0;exitDy=0;" parent="1" source="BabXA0i_4MHQfyEZQ3z1-56" target="BabXA0i_4MHQfyEZQ3z1-55" edge="1">
          <mxGeometry relative="1" as="geometry">
            <mxPoint x="1211.75" y="-224" as="sourcePoint" />
            <mxPoint x="1419.75" y="-438.0000000000002" as="targetPoint" />
          </mxGeometry>
        </mxCell>
        <mxCell id="BabXA0i_4MHQfyEZQ3z1-72" value="TROFEO" style="whiteSpace=wrap;html=1;align=center;fontSize=16;" parent="1" vertex="1">
          <mxGeometry x="806.25" y="-622" width="131" height="44" as="geometry" />
        </mxCell>
        <mxCell id="BabXA0i_4MHQfyEZQ3z1-73" value="NomeTrofeo" style="ellipse;whiteSpace=wrap;html=1;align=center;fontStyle=4;fontSize=16;" parent="1" vertex="1">
          <mxGeometry x="746" y="-807" width="100" height="40" as="geometry" />
        </mxCell>
        <mxCell id="BabXA0i_4MHQfyEZQ3z1-84" value="Squadra" style="ellipse;whiteSpace=wrap;html=1;align=center;fontSize=16;" parent="1" vertex="1">
          <mxGeometry x="674" y="-711" width="100" height="40" as="geometry" />
        </mxCell>
        <mxCell id="BabXA0i_4MHQfyEZQ3z1-90" value="" style="endArrow=none;html=1;rounded=0;fontSize=12;startSize=8;endSize=8;exitX=0.5;exitY=1;exitDx=0;exitDy=0;" parent="1" source="BabXA0i_4MHQfyEZQ3z1-73" edge="1">
          <mxGeometry relative="1" as="geometry">
            <mxPoint x="796" y="-768" as="sourcePoint" />
            <mxPoint x="871.7950819672133" y="-623" as="targetPoint" />
            <Array as="points">
              <mxPoint x="872" y="-723" />
            </Array>
          </mxGeometry>
        </mxCell>
        <mxCell id="BabXA0i_4MHQfyEZQ3z1-91" value="" style="edgeStyle=none;shape=connector;curved=1;rounded=0;orthogonalLoop=1;jettySize=auto;html=1;labelBackgroundColor=default;strokeColor=default;align=center;verticalAlign=middle;fontFamily=Helvetica;fontSize=12;fontColor=default;endArrow=none;endFill=0;startSize=8;endSize=8;exitX=1;exitY=0.5;exitDx=0;exitDy=0;" parent="1" source="BabXA0i_4MHQfyEZQ3z1-84" edge="1">
          <mxGeometry relative="1" as="geometry">
            <mxPoint x="755.7499999999999" y="-689" as="sourcePoint" />
            <mxPoint x="872" y="-691" as="targetPoint" />
          </mxGeometry>
        </mxCell>
        <mxCell id="BabXA0i_4MHQfyEZQ3z1-92" value="Anno" style="ellipse;whiteSpace=wrap;html=1;align=center;fontStyle=4;fontSize=16;" parent="1" vertex="1">
          <mxGeometry x="887" y="-807" width="100" height="40" as="geometry" />
        </mxCell>
        <mxCell id="BabXA0i_4MHQfyEZQ3z1-93" value="" style="endArrow=none;html=1;rounded=0;fontSize=12;startSize=8;endSize=8;exitX=0.5;exitY=1;exitDx=0;exitDy=0;entryX=0.5;entryY=0;entryDx=0;entryDy=0;" parent="1" source="BabXA0i_4MHQfyEZQ3z1-92" target="BabXA0i_4MHQfyEZQ3z1-72" edge="1">
          <mxGeometry relative="1" as="geometry">
            <mxPoint x="944.75" y="-738" as="sourcePoint" />
            <mxPoint x="1013" y="-622" as="targetPoint" />
            <Array as="points">
              <mxPoint x="872" y="-723" />
            </Array>
          </mxGeometry>
        </mxCell>
        <mxCell id="BabXA0i_4MHQfyEZQ3z1-101" value="" style="edgeStyle=orthogonalEdgeStyle;shape=connector;rounded=0;orthogonalLoop=1;jettySize=auto;html=1;labelBackgroundColor=default;strokeColor=default;align=center;verticalAlign=middle;fontFamily=Helvetica;fontSize=12;fontColor=default;endArrow=none;endFill=0;startSize=8;endSize=8;" parent="1" source="BabXA0i_4MHQfyEZQ3z1-99" target="BabXA0i_4MHQfyEZQ3z1-1" edge="1">
          <mxGeometry relative="1" as="geometry">
            <Array as="points">
              <mxPoint x="-112" y="-68" />
            </Array>
          </mxGeometry>
        </mxCell>
        <mxCell id="BabXA0i_4MHQfyEZQ3z1-99" value="Ha" style="rhombus;whiteSpace=wrap;html=1;fontSize=16;" parent="1" vertex="1">
          <mxGeometry x="-137" y="56" width="50" height="48" as="geometry" />
        </mxCell>
        <mxCell id="BabXA0i_4MHQfyEZQ3z1-102" value="(1,1)" style="text;html=1;align=center;verticalAlign=middle;resizable=0;points=[];autosize=1;strokeColor=none;fillColor=none;fontSize=16;fontFamily=Helvetica;fontColor=default;" parent="1" vertex="1">
          <mxGeometry x="-117" y="144" width="51" height="31" as="geometry" />
        </mxCell>
        <mxCell id="BabXA0i_4MHQfyEZQ3z1-103" value="(1, N)" style="text;html=1;align=center;verticalAlign=middle;resizable=0;points=[];autosize=1;strokeColor=none;fillColor=none;fontSize=16;fontFamily=Helvetica;fontColor=default;" parent="1" vertex="1">
          <mxGeometry x="19" y="-96" width="58" height="31" as="geometry" />
        </mxCell>
        <mxCell id="BabXA0i_4MHQfyEZQ3z1-106" value="" style="edgeStyle=elbowEdgeStyle;shape=connector;rounded=0;orthogonalLoop=1;jettySize=auto;html=1;labelBackgroundColor=default;strokeColor=default;align=center;verticalAlign=middle;fontFamily=Helvetica;fontSize=12;fontColor=default;endArrow=none;endFill=0;startSize=8;endSize=8;" parent="1" source="BabXA0i_4MHQfyEZQ3z1-104" target="BabXA0i_4MHQfyEZQ3z1-72" edge="1">
          <mxGeometry relative="1" as="geometry">
            <Array as="points">
              <mxPoint x="472" y="-499" />
            </Array>
          </mxGeometry>
        </mxCell>
        <mxCell id="BabXA0i_4MHQfyEZQ3z1-110" value="" style="edgeStyle=elbowEdgeStyle;shape=connector;rounded=0;orthogonalLoop=1;jettySize=auto;html=1;labelBackgroundColor=default;strokeColor=default;align=center;verticalAlign=middle;fontFamily=Helvetica;fontSize=12;fontColor=default;endArrow=none;endFill=0;startSize=8;endSize=8;entryX=0;entryY=0.5;entryDx=0;entryDy=0;exitX=1;exitY=0.5;exitDx=0;exitDy=0;" parent="1" source="BabXA0i_4MHQfyEZQ3z1-1" target="BabXA0i_4MHQfyEZQ3z1-109" edge="1">
          <mxGeometry relative="1" as="geometry">
            <mxPoint x="472" y="-154" as="sourcePoint" />
            <mxPoint x="627.6746987951808" y="-290.3253012048192" as="targetPoint" />
            <Array as="points">
              <mxPoint x="543" y="-227" />
            </Array>
          </mxGeometry>
        </mxCell>
        <mxCell id="BabXA0i_4MHQfyEZQ3z1-104" value="Vincere" style="rhombus;whiteSpace=wrap;html=1;fontSize=16;" parent="1" vertex="1">
          <mxGeometry x="430" y="-468" width="80" height="80" as="geometry" />
        </mxCell>
        <mxCell id="BabXA0i_4MHQfyEZQ3z1-107" value="(0, N)" style="text;html=1;align=center;verticalAlign=middle;resizable=0;points=[];autosize=1;strokeColor=none;fillColor=none;fontSize=11;fontFamily=Helvetica;fontColor=default;" parent="1" vertex="1">
          <mxGeometry x="165" y="-112" width="46" height="25" as="geometry" />
        </mxCell>
        <mxCell id="BabXA0i_4MHQfyEZQ3z1-108" value="(0, N)" style="text;html=1;align=center;verticalAlign=middle;resizable=0;points=[];autosize=1;strokeColor=none;fillColor=none;fontSize=16;fontFamily=Helvetica;fontColor=default;" parent="1" vertex="1">
          <mxGeometry x="754" y="-628" width="58" height="31" as="geometry" />
        </mxCell>
        <mxCell id="BabXA0i_4MHQfyEZQ3z1-111" value="" style="edgeStyle=none;shape=connector;curved=1;rounded=0;orthogonalLoop=1;jettySize=auto;html=1;labelBackgroundColor=default;strokeColor=default;align=center;verticalAlign=middle;fontFamily=Helvetica;fontSize=12;fontColor=default;endArrow=none;endFill=0;startSize=8;endSize=8;" parent="1" source="BabXA0i_4MHQfyEZQ3z1-109" target="BabXA0i_4MHQfyEZQ3z1-55" edge="1">
          <mxGeometry relative="1" as="geometry" />
        </mxCell>
        <mxCell id="BabXA0i_4MHQfyEZQ3z1-109" value="Partecipa" style="rhombus;whiteSpace=wrap;html=1;fontSize=16;" parent="1" vertex="1">
          <mxGeometry x="614" y="-348" width="80" height="80" as="geometry" />
        </mxCell>
        <mxCell id="BabXA0i_4MHQfyEZQ3z1-114" value="" style="shape=connector;rounded=0;orthogonalLoop=1;jettySize=auto;html=1;labelBackgroundColor=default;strokeColor=default;align=center;verticalAlign=middle;fontFamily=Helvetica;fontSize=12;fontColor=default;endArrow=none;endFill=0;startSize=8;endSize=8;edgeStyle=elbowEdgeStyle;exitX=0.5;exitY=0;exitDx=0;exitDy=0;elbow=vertical;" parent="1" source="BabXA0i_4MHQfyEZQ3z1-112" target="BabXA0i_4MHQfyEZQ3z1-55" edge="1">
          <mxGeometry relative="1" as="geometry">
            <Array as="points">
              <mxPoint x="1240" y="-163" />
            </Array>
          </mxGeometry>
        </mxCell>
        <mxCell id="BabXA0i_4MHQfyEZQ3z1-112" value="Riferisce" style="rhombus;whiteSpace=wrap;html=1;fontSize=16;" parent="1" vertex="1">
          <mxGeometry x="1565" y="745" width="74" height="68" as="geometry" />
        </mxCell>
        <mxCell id="BabXA0i_4MHQfyEZQ3z1-115" value="(1, 1)" style="text;html=1;align=center;verticalAlign=middle;resizable=0;points=[];autosize=1;strokeColor=none;fillColor=none;fontSize=16;fontFamily=Helvetica;fontColor=default;" parent="1" vertex="1">
          <mxGeometry x="-51" y="169" width="55" height="31" as="geometry" />
        </mxCell>
        <mxCell id="BabXA0i_4MHQfyEZQ3z1-116" value="(0, N)" style="text;html=1;align=center;verticalAlign=middle;resizable=0;points=[];autosize=1;strokeColor=none;fillColor=none;fontSize=11;fontFamily=Helvetica;fontColor=default;" parent="1" vertex="1">
          <mxGeometry x="865.75" y="-286" width="46" height="25" as="geometry" />
        </mxCell>
        <mxCell id="BabXA0i_4MHQfyEZQ3z1-119" value="" style="edgeStyle=none;shape=connector;curved=1;rounded=0;orthogonalLoop=1;jettySize=auto;html=1;labelBackgroundColor=default;strokeColor=default;align=center;verticalAlign=middle;fontFamily=Helvetica;fontSize=12;fontColor=default;endArrow=none;endFill=0;startSize=8;endSize=8;" parent="1" source="BabXA0i_4MHQfyEZQ3z1-117" target="BabXA0i_4MHQfyEZQ3z1-72" edge="1">
          <mxGeometry relative="1" as="geometry" />
        </mxCell>
        <mxCell id="BabXA0i_4MHQfyEZQ3z1-117" value="Ottenuto&lt;br&gt;da" style="rhombus;whiteSpace=wrap;html=1;fontSize=16;" parent="1" vertex="1">
          <mxGeometry x="827.13" y="-501" width="89.25" height="95" as="geometry" />
        </mxCell>
        <mxCell id="BabXA0i_4MHQfyEZQ3z1-120" value="(0, 1)" style="text;html=1;align=center;verticalAlign=middle;resizable=0;points=[];autosize=1;strokeColor=none;fillColor=none;fontSize=16;fontFamily=Helvetica;fontColor=default;" parent="1" vertex="1">
          <mxGeometry x="815" y="-579" width="55" height="31" as="geometry" />
        </mxCell>
        <mxCell id="BabXA0i_4MHQfyEZQ3z1-121" value="(0, N)" style="text;html=1;align=center;verticalAlign=middle;resizable=0;points=[];autosize=1;strokeColor=none;fillColor=none;fontSize=16;fontFamily=Helvetica;fontColor=default;" parent="1" vertex="1">
          <mxGeometry x="815" y="-359" width="58" height="31" as="geometry" />
        </mxCell>
        <mxCell id="mCapJPWahhMgRFZEFvtk-2" value="" style="rounded=0;orthogonalLoop=1;jettySize=auto;html=1;endArrow=none;endFill=0;entryX=0;entryY=0.5;entryDx=0;entryDy=0;edgeStyle=orthogonalEdgeStyle;" parent="1" source="BabXA0i_4MHQfyEZQ3z1-122" target="mCapJPWahhMgRFZEFvtk-1" edge="1">
          <mxGeometry relative="1" as="geometry">
            <Array as="points">
              <mxPoint x="599" y="-74" />
            </Array>
          </mxGeometry>
        </mxCell>
        <mxCell id="mCapJPWahhMgRFZEFvtk-19" value="" style="edgeStyle=orthogonalEdgeStyle;shape=connector;rounded=0;orthogonalLoop=1;jettySize=auto;html=1;labelBackgroundColor=default;strokeColor=default;align=center;verticalAlign=middle;fontFamily=Helvetica;fontSize=11;fontColor=default;endArrow=none;endFill=0;" parent="1" source="BabXA0i_4MHQfyEZQ3z1-122" target="mCapJPWahhMgRFZEFvtk-16" edge="1">
          <mxGeometry relative="1" as="geometry" />
        </mxCell>
        <mxCell id="BabXA0i_4MHQfyEZQ3z1-122" value="ALLENATORE" style="whiteSpace=wrap;html=1;align=center;fontSize=16;flipV=0;flipH=0;" parent="1" vertex="1">
          <mxGeometry x="533.75" y="194.5" width="131" height="44" as="geometry" />
        </mxCell>
        <mxCell id="BabXA0i_4MHQfyEZQ3z1-123" value="SSN" style="ellipse;whiteSpace=wrap;html=1;align=center;fontStyle=4;fontSize=16;flipV=0;flipH=0;" parent="1" vertex="1">
          <mxGeometry x="549.25" y="496" width="100" height="40" as="geometry" />
        </mxCell>
        <mxCell id="BabXA0i_4MHQfyEZQ3z1-124" value="" style="edgeStyle=none;curved=1;rounded=0;orthogonalLoop=1;jettySize=auto;html=1;fontSize=12;startSize=8;endSize=8;endArrow=none;endFill=0;" parent="1" source="BabXA0i_4MHQfyEZQ3z1-125" target="BabXA0i_4MHQfyEZQ3z1-126" edge="1">
          <mxGeometry relative="1" as="geometry" />
        </mxCell>
        <mxCell id="BabXA0i_4MHQfyEZQ3z1-125" value="Nome" style="ellipse;whiteSpace=wrap;html=1;align=center;fontSize=16;flipV=0;flipH=0;" parent="1" vertex="1">
          <mxGeometry x="384.25" y="286.5" width="100" height="40" as="geometry" />
        </mxCell>
        <mxCell id="BabXA0i_4MHQfyEZQ3z1-126" value="Cognome" style="ellipse;whiteSpace=wrap;html=1;align=center;fontSize=16;flipV=0;flipH=0;" parent="1" vertex="1">
          <mxGeometry x="701.75" y="286.5" width="100" height="40" as="geometry" />
        </mxCell>
        <mxCell id="BabXA0i_4MHQfyEZQ3z1-129" value="" style="edgeStyle=none;shape=connector;curved=1;rounded=0;orthogonalLoop=1;jettySize=auto;html=1;labelBackgroundColor=default;strokeColor=default;align=center;verticalAlign=middle;fontFamily=Helvetica;fontSize=12;fontColor=default;endArrow=none;endFill=0;startSize=8;endSize=8;" parent="1" source="BabXA0i_4MHQfyEZQ3z1-130" target="BabXA0i_4MHQfyEZQ3z1-131" edge="1">
          <mxGeometry relative="1" as="geometry" />
        </mxCell>
        <mxCell id="BabXA0i_4MHQfyEZQ3z1-130" value="InizioA" style="ellipse;whiteSpace=wrap;html=1;align=center;fontSize=16;flipV=0;flipH=0;" parent="1" vertex="1">
          <mxGeometry x="382.25" y="363.5" width="104" height="44" as="geometry" />
        </mxCell>
        <mxCell id="BabXA0i_4MHQfyEZQ3z1-131" value="FineA" style="ellipse;whiteSpace=wrap;html=1;align=center;fontSize=16;flipV=0;flipH=0;" parent="1" vertex="1">
          <mxGeometry x="706.25" y="365.5" width="100" height="40" as="geometry" />
        </mxCell>
        <mxCell id="BabXA0i_4MHQfyEZQ3z1-138" value="" style="endArrow=none;html=1;rounded=0;labelBackgroundColor=default;strokeColor=default;align=center;verticalAlign=middle;fontFamily=Helvetica;fontSize=12;fontColor=default;startSize=8;endSize=8;shape=connector;curved=1;entryX=0.5;entryY=1;entryDx=0;entryDy=0;exitX=0.5;exitY=0;exitDx=0;exitDy=0;" parent="1" source="BabXA0i_4MHQfyEZQ3z1-123" target="BabXA0i_4MHQfyEZQ3z1-122" edge="1">
          <mxGeometry relative="1" as="geometry">
            <mxPoint x="398.25" y="452.5" as="sourcePoint" />
            <mxPoint x="558.25" y="452.5" as="targetPoint" />
          </mxGeometry>
        </mxCell>
        <mxCell id="mCapJPWahhMgRFZEFvtk-7" value="" style="edgeStyle=orthogonalEdgeStyle;shape=connector;rounded=0;orthogonalLoop=1;jettySize=auto;html=1;labelBackgroundColor=default;strokeColor=default;align=center;verticalAlign=middle;fontFamily=Helvetica;fontSize=11;fontColor=default;endArrow=none;endFill=0;" parent="1" source="BabXA0i_4MHQfyEZQ3z1-139" target="mCapJPWahhMgRFZEFvtk-6" edge="1">
          <mxGeometry relative="1" as="geometry">
            <Array as="points">
              <mxPoint x="1242" y="-74" />
            </Array>
          </mxGeometry>
        </mxCell>
        <mxCell id="mCapJPWahhMgRFZEFvtk-23" value="" style="edgeStyle=orthogonalEdgeStyle;shape=connector;rounded=0;orthogonalLoop=1;jettySize=auto;html=1;labelBackgroundColor=default;strokeColor=default;align=center;verticalAlign=middle;fontFamily=Helvetica;fontSize=11;fontColor=default;endArrow=none;endFill=0;entryX=1;entryY=0.5;entryDx=0;entryDy=0;" parent="1" source="BabXA0i_4MHQfyEZQ3z1-139" target="mCapJPWahhMgRFZEFvtk-20" edge="1">
          <mxGeometry relative="1" as="geometry">
            <mxPoint x="447" y="646" as="targetPoint" />
            <Array as="points">
              <mxPoint x="933" y="207" />
              <mxPoint x="933" y="646" />
            </Array>
          </mxGeometry>
        </mxCell>
        <mxCell id="BabXA0i_4MHQfyEZQ3z1-139" value="DIRIGENTE" style="whiteSpace=wrap;html=1;align=center;fontSize=16;flipV=0;flipH=0;" parent="1" vertex="1">
          <mxGeometry x="1176.75" y="185" width="131" height="44" as="geometry" />
        </mxCell>
        <mxCell id="BabXA0i_4MHQfyEZQ3z1-140" value="SSN" style="ellipse;whiteSpace=wrap;html=1;align=center;fontStyle=4;fontSize=16;flipV=0;flipH=0;" parent="1" vertex="1">
          <mxGeometry x="1192.25" y="519" width="100" height="40" as="geometry" />
        </mxCell>
        <mxCell id="BabXA0i_4MHQfyEZQ3z1-141" value="" style="edgeStyle=none;curved=1;rounded=0;orthogonalLoop=1;jettySize=auto;html=1;fontSize=12;startSize=8;endSize=8;endArrow=none;endFill=0;" parent="1" source="BabXA0i_4MHQfyEZQ3z1-142" target="BabXA0i_4MHQfyEZQ3z1-143" edge="1">
          <mxGeometry relative="1" as="geometry" />
        </mxCell>
        <mxCell id="BabXA0i_4MHQfyEZQ3z1-142" value="Nome" style="ellipse;whiteSpace=wrap;html=1;align=center;fontSize=16;flipV=0;flipH=0;" parent="1" vertex="1">
          <mxGeometry x="1027.25" y="277" width="100" height="40" as="geometry" />
        </mxCell>
        <mxCell id="BabXA0i_4MHQfyEZQ3z1-143" value="Cognome" style="ellipse;whiteSpace=wrap;html=1;align=center;fontSize=16;flipV=0;flipH=0;" parent="1" vertex="1">
          <mxGeometry x="1344.75" y="277" width="100" height="40" as="geometry" />
        </mxCell>
        <mxCell id="BabXA0i_4MHQfyEZQ3z1-144" value="" style="edgeStyle=none;shape=connector;curved=1;rounded=0;orthogonalLoop=1;jettySize=auto;html=1;labelBackgroundColor=default;strokeColor=default;align=center;verticalAlign=middle;fontFamily=Helvetica;fontSize=12;fontColor=default;endArrow=none;endFill=0;startSize=8;endSize=8;" parent="1" source="BabXA0i_4MHQfyEZQ3z1-145" target="BabXA0i_4MHQfyEZQ3z1-146" edge="1">
          <mxGeometry relative="1" as="geometry" />
        </mxCell>
        <mxCell id="BabXA0i_4MHQfyEZQ3z1-145" value="InizioD" style="ellipse;whiteSpace=wrap;html=1;align=center;fontSize=16;flipV=0;flipH=0;" parent="1" vertex="1">
          <mxGeometry x="1025.25" y="354" width="104" height="44" as="geometry" />
        </mxCell>
        <mxCell id="BabXA0i_4MHQfyEZQ3z1-146" value="FineD" style="ellipse;whiteSpace=wrap;html=1;align=center;fontSize=16;flipV=0;flipH=0;" parent="1" vertex="1">
          <mxGeometry x="1349.25" y="356" width="100" height="40" as="geometry" />
        </mxCell>
        <mxCell id="BabXA0i_4MHQfyEZQ3z1-147" value="" style="endArrow=none;html=1;rounded=0;labelBackgroundColor=default;strokeColor=default;align=center;verticalAlign=middle;fontFamily=Helvetica;fontSize=12;fontColor=default;startSize=8;endSize=8;shape=connector;curved=1;entryX=0.5;entryY=1;entryDx=0;entryDy=0;exitX=0.5;exitY=0;exitDx=0;exitDy=0;" parent="1" source="BabXA0i_4MHQfyEZQ3z1-140" target="BabXA0i_4MHQfyEZQ3z1-139" edge="1">
          <mxGeometry relative="1" as="geometry">
            <mxPoint x="1041.25" y="443" as="sourcePoint" />
            <mxPoint x="1201.25" y="443" as="targetPoint" />
          </mxGeometry>
        </mxCell>
        <mxCell id="BabXA0i_4MHQfyEZQ3z1-150" value="" style="edgeStyle=none;shape=connector;curved=1;rounded=0;orthogonalLoop=1;jettySize=auto;html=1;labelBackgroundColor=default;strokeColor=default;align=center;verticalAlign=middle;fontFamily=Helvetica;fontSize=12;fontColor=default;endArrow=none;endFill=0;startSize=8;endSize=8;" parent="1" edge="1">
          <mxGeometry relative="1" as="geometry">
            <mxPoint x="1128.250000000002" y="455" as="sourcePoint" />
            <mxPoint x="1242.25" y="455" as="targetPoint" />
          </mxGeometry>
        </mxCell>
        <mxCell id="BabXA0i_4MHQfyEZQ3z1-148" value="RuoloDirigente" style="ellipse;whiteSpace=wrap;html=1;align=center;fontFamily=Helvetica;fontSize=12;fontColor=default;" parent="1" vertex="1">
          <mxGeometry x="1029.25" y="435" width="100" height="40" as="geometry" />
        </mxCell>
        <mxCell id="mCapJPWahhMgRFZEFvtk-3" value="" style="edgeStyle=orthogonalEdgeStyle;rounded=0;orthogonalLoop=1;jettySize=auto;html=1;endArrow=none;endFill=0;entryX=0;entryY=0.75;entryDx=0;entryDy=0;" parent="1" source="mCapJPWahhMgRFZEFvtk-1" target="BabXA0i_4MHQfyEZQ3z1-55" edge="1">
          <mxGeometry relative="1" as="geometry" />
        </mxCell>
        <mxCell id="mCapJPWahhMgRFZEFvtk-1" value="Allena" style="rhombus;whiteSpace=wrap;html=1;fontSize=16;" parent="1" vertex="1">
          <mxGeometry x="646" y="-114" width="80" height="80" as="geometry" />
        </mxCell>
        <mxCell id="mCapJPWahhMgRFZEFvtk-4" value="(1,N)" style="text;html=1;align=center;verticalAlign=middle;resizable=0;points=[];autosize=1;strokeColor=none;fillColor=none;fontSize=11;fontFamily=Helvetica;fontColor=default;" parent="1" vertex="1">
          <mxGeometry x="562.25" y="169" width="42" height="25" as="geometry" />
        </mxCell>
        <mxCell id="mCapJPWahhMgRFZEFvtk-5" value="(1,1)" style="text;html=1;align=center;verticalAlign=middle;resizable=0;points=[];autosize=1;strokeColor=none;fillColor=none;fontSize=11;fontFamily=Helvetica;fontColor=default;" parent="1" vertex="1">
          <mxGeometry x="768.5" y="-303" width="41" height="25" as="geometry" />
        </mxCell>
        <mxCell id="mCapJPWahhMgRFZEFvtk-6" value="Dirige" style="rhombus;whiteSpace=wrap;html=1;fontSize=16;" parent="1" vertex="1">
          <mxGeometry x="800" y="-114" width="80" height="80" as="geometry" />
        </mxCell>
        <mxCell id="mCapJPWahhMgRFZEFvtk-13" value="" style="endArrow=none;html=1;rounded=0;labelBackgroundColor=default;strokeColor=default;align=center;verticalAlign=middle;fontFamily=Helvetica;fontSize=11;fontColor=default;shape=connector;entryX=0.25;entryY=1;entryDx=0;entryDy=0;exitX=0.5;exitY=0;exitDx=0;exitDy=0;" parent="1" source="mCapJPWahhMgRFZEFvtk-6" target="BabXA0i_4MHQfyEZQ3z1-55" edge="1">
          <mxGeometry width="50" height="50" relative="1" as="geometry">
            <mxPoint x="790" y="-210" as="sourcePoint" />
            <mxPoint x="840" y="-260" as="targetPoint" />
          </mxGeometry>
        </mxCell>
        <mxCell id="mCapJPWahhMgRFZEFvtk-14" value="(1,N)" style="text;html=1;align=center;verticalAlign=middle;resizable=0;points=[];autosize=1;strokeColor=none;fillColor=none;fontSize=11;fontFamily=Helvetica;fontColor=default;" parent="1" vertex="1">
          <mxGeometry x="1209" y="163" width="42" height="25" as="geometry" />
        </mxCell>
        <mxCell id="mCapJPWahhMgRFZEFvtk-15" value="(1, N)" style="text;html=1;align=center;verticalAlign=middle;resizable=0;points=[];autosize=1;strokeColor=none;fillColor=none;fontSize=11;fontFamily=Helvetica;fontColor=default;" parent="1" vertex="1">
          <mxGeometry x="800" y="-286.5" width="46" height="25" as="geometry" />
        </mxCell>
        <mxCell id="mCapJPWahhMgRFZEFvtk-16" value="Può essere" style="rhombus;whiteSpace=wrap;html=1;fontSize=16;" parent="1" vertex="1">
          <mxGeometry x="331" y="34" width="80" height="80" as="geometry" />
        </mxCell>
        <mxCell id="mCapJPWahhMgRFZEFvtk-20" value="Può Diventare" style="rhombus;whiteSpace=wrap;html=1;fontSize=16;" parent="1" vertex="1">
          <mxGeometry x="334" y="595" width="99" height="99" as="geometry" />
        </mxCell>
        <mxCell id="mCapJPWahhMgRFZEFvtk-27" value="" style="endArrow=none;html=1;rounded=0;labelBackgroundColor=default;strokeColor=default;align=center;verticalAlign=middle;fontFamily=Helvetica;fontSize=11;fontColor=default;shape=connector;entryX=0.5;entryY=1;entryDx=0;entryDy=0;edgeStyle=elbowEdgeStyle;elbow=vertical;exitX=0.75;exitY=0;exitDx=0;exitDy=0;" parent="1" source="BabXA0i_4MHQfyEZQ3z1-1" target="BabXA0i_4MHQfyEZQ3z1-104" edge="1">
          <mxGeometry width="50" height="50" relative="1" as="geometry">
            <mxPoint x="376" y="-124" as="sourcePoint" />
            <mxPoint x="473" y="-227" as="targetPoint" />
            <Array as="points">
              <mxPoint x="316" y="-111" />
            </Array>
          </mxGeometry>
        </mxCell>
        <mxCell id="mCapJPWahhMgRFZEFvtk-28" value="(0, N)" style="text;html=1;align=center;verticalAlign=middle;resizable=0;points=[];autosize=1;strokeColor=none;fillColor=none;fontSize=11;fontFamily=Helvetica;fontColor=default;" parent="1" vertex="1">
          <mxGeometry x="195.5" y="-87" width="46" height="25" as="geometry" />
        </mxCell>
        <mxCell id="mCapJPWahhMgRFZEFvtk-29" value="(11, N)" style="text;html=1;align=center;verticalAlign=middle;resizable=0;points=[];autosize=1;strokeColor=none;fillColor=none;fontSize=11;fontFamily=Helvetica;fontColor=default;" parent="1" vertex="1">
          <mxGeometry x="761" y="-330" width="51" height="25" as="geometry" />
        </mxCell>
        <mxCell id="mCapJPWahhMgRFZEFvtk-30" value="(0, 1)" style="text;html=1;align=center;verticalAlign=middle;resizable=0;points=[];autosize=1;strokeColor=none;fillColor=none;fontSize=11;fontFamily=Helvetica;fontColor=default;" parent="1" vertex="1">
          <mxGeometry x="101" y="-54" width="44" height="25" as="geometry" />
        </mxCell>
        <mxCell id="mCapJPWahhMgRFZEFvtk-31" value="(0, 1)" style="text;html=1;align=center;verticalAlign=middle;resizable=0;points=[];autosize=1;strokeColor=none;fillColor=none;fontSize=11;fontFamily=Helvetica;fontColor=default;" parent="1" vertex="1">
          <mxGeometry x="163" y="-53" width="44" height="25" as="geometry" />
        </mxCell>
        <mxCell id="mCapJPWahhMgRFZEFvtk-32" value="(0, 1)" style="text;html=1;align=center;verticalAlign=middle;resizable=0;points=[];autosize=1;strokeColor=none;fillColor=none;fontSize=11;fontFamily=Helvetica;fontColor=default;" parent="1" vertex="1">
          <mxGeometry x="498" y="194.5" width="44" height="25" as="geometry" />
        </mxCell>
        <mxCell id="mCapJPWahhMgRFZEFvtk-33" value="(0, 1)" style="text;html=1;align=center;verticalAlign=middle;resizable=0;points=[];autosize=1;strokeColor=none;fillColor=none;fontSize=11;fontFamily=Helvetica;fontColor=default;" parent="1" vertex="1">
          <mxGeometry x="1140" y="184.5" width="44" height="25" as="geometry" />
        </mxCell>
        <mxCell id="Nhk0jw13Ye5XI1U4ZL1W-1" value="&lt;font size=&quot;3&quot;&gt;Sesso&lt;/font&gt;" style="ellipse;whiteSpace=wrap;html=1;" parent="1" vertex="1">
          <mxGeometry x="236.5" y="-183.5" width="120" height="53" as="geometry" />
        </mxCell>
        <mxCell id="Nhk0jw13Ye5XI1U4ZL1W-2" value="" style="endArrow=none;html=1;rounded=0;entryX=0;entryY=0.5;entryDx=0;entryDy=0;" parent="1" target="Nhk0jw13Ye5XI1U4ZL1W-1" edge="1">
          <mxGeometry width="50" height="50" relative="1" as="geometry">
            <mxPoint x="126" y="-157" as="sourcePoint" />
            <mxPoint x="420" y="-261" as="targetPoint" />
          </mxGeometry>
        </mxCell>
        <mxCell id="xTjIvPTMQpTBCQfGHBNR-1" value="&lt;font style=&quot;font-size: 16px;&quot;&gt;Sesso&lt;/font&gt;" style="ellipse;whiteSpace=wrap;html=1;" parent="1" vertex="1">
          <mxGeometry x="1349.25" y="429" width="108.25" height="52" as="geometry" />
        </mxCell>
        <mxCell id="xTjIvPTMQpTBCQfGHBNR-2" value="" style="endArrow=none;html=1;rounded=0;entryX=0;entryY=0.5;entryDx=0;entryDy=0;" parent="1" target="xTjIvPTMQpTBCQfGHBNR-1" edge="1">
          <mxGeometry width="50" height="50" relative="1" as="geometry">
            <mxPoint x="1242" y="455" as="sourcePoint" />
            <mxPoint x="1275" y="442" as="targetPoint" />
          </mxGeometry>
        </mxCell>
        <mxCell id="xTjIvPTMQpTBCQfGHBNR-3" value="&lt;font size=&quot;3&quot;&gt;Sesso&lt;br&gt;&lt;/font&gt;" style="ellipse;whiteSpace=wrap;html=1;" parent="1" vertex="1">
          <mxGeometry x="384.25" y="433" width="110" height="50" as="geometry" />
        </mxCell>
        <mxCell id="xTjIvPTMQpTBCQfGHBNR-5" value="" style="endArrow=none;html=1;rounded=0;exitX=1;exitY=0.5;exitDx=0;exitDy=0;" parent="1" source="xTjIvPTMQpTBCQfGHBNR-3" edge="1">
          <mxGeometry width="50" height="50" relative="1" as="geometry">
            <mxPoint x="715" y="416" as="sourcePoint" />
            <mxPoint x="600" y="458" as="targetPoint" />
          </mxGeometry>
        </mxCell>
      </root>
    </mxGraphModel>
  </diagram>
</mxfile>
